HIERARCHY
ROOT hip
{
	OFFSET 0.000000 0.000000 0.000000 
	CHANNELS 6 Xposition Yposition Zposition Xrotation Zrotation Yrotation
	JOINT abdomen
	{
		OFFSET 0.000000 3.402643 0.000000 
		CHANNELS 3 Xrotation Zrotation Yrotation
		JOINT chest
		{
			OFFSET 0.000000 8.438565 -0.680529 
			CHANNELS 3 Xrotation Zrotation Yrotation
			JOINT neck
			{
				OFFSET 0.000000 10.207942 -0.272212 
				CHANNELS 3 Xrotation Zrotation Yrotation
				JOINT head
				{
					OFFSET 0.000000 3.130431 0.000000 
					CHANNELS 3 Xrotation Zrotation Yrotation
					End Site
					{
						OFFSET 0.000000 3.130435 0.000000 
					}
				}
			}
			JOINT lCollar
			{
				OFFSET 3.470700 6.669187 -0.816635 
				CHANNELS 3 Yrotation Zrotation Xrotation
				JOINT lShldr
				{
					OFFSET 3.198488 0.000000 0.000000 
					CHANNELS 3 Zrotation Yrotation Xrotation
					JOINT lForeArm
					{
						OFFSET 10.139888 0.000000 0.000000 
						CHANNELS 3 Yrotation Zrotation Xrotation
						JOINT lHand
						{
							OFFSET 8.370511 0.000000 0.000000 
							CHANNELS 3 Zrotation Yrotation Xrotation
							End Site
							{
								OFFSET 4.083176 0.000000 0.000000 
							}
						}
					}
				}
			}
			JOINT rCollar
			{
				OFFSET -3.470700 6.669187 -0.816635 
				CHANNELS 3 Yrotation Zrotation Xrotation
				JOINT rShldr
				{
					OFFSET -3.198488 0.000000 0.000000 
					CHANNELS 3 Zrotation Yrotation Xrotation
					JOINT rForeArm
					{
						OFFSET -10.139888 0.000000 0.000000 
						CHANNELS 3 Yrotation Zrotation Xrotation
						JOINT rHand
						{
							OFFSET -8.370511 0.000000 0.000000 
							CHANNELS 3 Zrotation Yrotation Xrotation
							End Site
							{
								OFFSET -4.083176 0.000000 0.000000 
							}
						}
					}
				}
			}
		}
	}
	JOINT lThigh
	{
		OFFSET 5.308129 -1.633274 1.361059 
		CHANNELS 3 Xrotation Zrotation Yrotation
		JOINT lShin
		{
			OFFSET -2.041588 -20.007561 0.000000 
			CHANNELS 3 Xrotation Zrotation Yrotation
			JOINT lFoot
			{
				OFFSET 0.000000 -19.190928 -1.224953 
				CHANNELS 3 Xrotation Yrotation Zrotation
				End Site
				{
					OFFSET 0.000000 -2.449906 4.627600 
				}
			}
		}
	}
	JOINT rThigh
	{
		OFFSET -5.308129 -1.633274 1.361059 
		CHANNELS 3 Xrotation Zrotation Yrotation
		JOINT rShin
		{
			OFFSET 2.041588 -20.007561 0.000000 
			CHANNELS 3 Xrotation Zrotation Yrotation
			JOINT rFoot
			{
				OFFSET 0.000000 -19.190928 -1.224953 
				CHANNELS 3 Xrotation Yrotation Zrotation
				End Site
				{
					OFFSET 0.000000 -2.449906 4.627600 
				}
			}
		}
	}
}
MOTION
Frames: 6
Frame Time: 0.016667
-0.028326 49.160336 -0.016995 -13.634310 -0.087878 0.976562 36.782001 4.542294 3.507528 19.066248 1.238002 -3.438174 39.376171 0.878838 0.713106 -28.150915 -3.964196 -1.038080 -11.506170 -15.605699 -3.108409 -34.471092 11.429053 69.987724 -83.611099 -0.389568 2.818128 1.575856 -3.407222 -3.506934 12.375180 11.679921 -2.558597 36.216610 -25.592215 61.616653 93.790154 1.291304 -13.160435 -1.593611 3.386809 -3.497299 21.027426 13.022282 0.580411 -3.298983 -0.635578 30.102320 3.892099 1.894913 -3.530848 21.411465 -8.523785 -0.721421 -7.753309 3.984508 -30.673744 0.382807 2.583862 -7.085581 
-0.056651 49.177330 -0.033990 -13.199221 0.165970 1.347679 36.782001 4.542294 3.507528 18.800266 1.160181 -3.301290 39.369267 0.537094 0.429760 -27.889313 -3.984258 -0.441105 -11.506170 -15.605699 -3.108409 -33.849834 11.449557 70.274666 -84.046173 -0.399663 2.830324 1.575856 -3.407222 -3.506934 12.021589 11.605412 -2.473456 36.411510 -26.111759 61.230186 93.703094 1.291514 -13.162660 -1.593611 3.386809 -3.497299 20.337334 13.307466 0.519989 -2.936792 -1.240770 29.294924 3.831325 1.804311 -3.489334 21.190338 -8.623361 -0.665804 -7.862296 3.868232 -31.180664 0.469447 2.607556 -7.264532 
-0.062317 49.205662 -0.039656 -12.846863 0.683164 2.031455 36.782001 4.542294 3.507528 18.535374 0.994382 -3.359716 39.278873 0.332028 0.263724 -27.541256 -4.062463 -0.244911 -11.602242 -15.604981 -3.137810 -33.405045 11.545671 70.384460 -84.132568 -0.387516 2.918478 1.575856 -3.407222 -3.506934 11.566884 11.537780 -2.368107 36.702251 -26.911943 60.532776 93.173912 1.293901 -13.166312 -1.593611 3.386809 -3.497299 19.437653 13.541404 0.534241 -2.151314 -2.010502 27.790859 3.593189 1.769428 -3.706629 21.085005 -8.864108 -0.727875 -8.075294 3.808823 -31.816097 0.489520 2.416116 -7.158526 
-0.067982 49.233990 -0.045321 -12.492131 1.199833 2.705712 36.782001 4.542294 3.507528 18.280584 0.828601 -3.418317 39.189674 0.117187 0.107442 -27.193716 -4.160155 -0.049408 -11.695080 -15.596404 -3.155348 -32.964275 11.643651 70.486847 -84.220757 -0.385326 3.006433 1.575856 -3.407222 -3.506934 11.112377 11.468546 -2.262319 37.006268 -27.715862 59.824390 92.645645 1.286220 -13.178972 -1.593611 3.386809 -3.497299 18.534502 13.777966 0.583631 -1.339488 -2.769458 26.265373 3.342510 1.733322 -3.904505 20.991058 -9.119883 -0.781710 -8.280663 3.740449 -32.440456 0.491016 2.221361 -7.043328 
-0.022658 49.284977 -0.084979 -12.240618 1.890558 3.713104 36.782001 4.542294 3.507528 18.362322 0.575039 -3.593863 39.013672 -0.009766 -0.009766 -26.755690 -4.248012 0.234454 -11.959177 -15.418365 -3.189481 -32.621513 11.828036 70.068085 -83.869400 -0.381085 2.913066 1.575856 -3.407222 -3.506934 10.746882 11.220271 -2.146048 37.576851 -28.860605 58.304298 91.771217 1.287941 -13.283576 -1.593611 3.386809 -3.497299 17.294537 14.032877 0.576368 0.021181 -3.737510 23.013876 2.966066 1.941513 -4.016996 21.081205 -9.558956 -0.834243 -8.670742 3.829814 -33.695740 0.495612 2.431297 -7.069132 
0.022665 49.335964 -0.124639 -11.975355 2.569388 4.721675 36.782001 4.542294 3.507528 18.454790 0.331317 -3.759816 38.838238 -0.156250 -0.126979 -26.308952 -4.355290 0.519050 -12.222450 -15.230239 -3.223512 -32.274582 12.019869 69.645897 -83.516235 -0.396787 2.821655 1.575856 -3.407222 -3.506934 10.372657 10.970926 -2.029520 38.188816 -30.010792 56.749763 90.897308 1.291265 -13.379382 -1.593611 3.386809 -3.497299 16.039843 14.281974 0.562738 1.445035 -4.637597 19.737680 2.601380 2.158967 -4.115097 21.165482 -9.996298 -0.868078 -9.045508 3.909478 -34.929974 0.480018 2.600682 -7.079244 
